HIERARCHY
ROOT root
{
	OFFSET 0.000000 0.000000 0.000000
	CHANNELS 6 Xposition Yposition Zposition Zrotation Yrotation Xrotation
	JOINT lhip
	{
		OFFSET 0.058581 -0.082280 -0.017664
		CHANNELS 3 Zrotation Yrotation Xrotation
		JOINT lknee
		{
			OFFSET 0.043451 -0.386469 0.008037
			CHANNELS 3 Zrotation Yrotation Xrotation
			JOINT lankle
			{
				OFFSET -0.014790 -0.426874 -0.037428
				CHANNELS 3 Zrotation Yrotation Xrotation
				JOINT ltoe
				{
					OFFSET 0.041054 -0.060286 0.122042
					CHANNELS 3 Zrotation Yrotation Xrotation
					End Site
					{
						OFFSET 0.000000 0.000000 0.000000
					}
				}
			}
		}
	}
	JOINT rhip
	{
		OFFSET -0.060310 -0.090513 -0.013543
		CHANNELS 3 Zrotation Yrotation Xrotation
		JOINT rknee
		{
			OFFSET -0.043257 -0.383688 -0.004843
			CHANNELS 3 Zrotation Yrotation Xrotation
			JOINT rankle
			{
				OFFSET 0.019056 -0.420046 -0.034562
				CHANNELS 3 Zrotation Yrotation Xrotation
				JOINT rtoe
				{
					OFFSET -0.034840 -0.062106 0.130323
					CHANNELS 3 Zrotation Yrotation Xrotation
					End Site
					{
						OFFSET 0.000000 0.000000 0.000000
					}
				}
			}
		}
	}
	JOINT lowerback
	{
		OFFSET 0.004439 0.124404 -0.038385
		CHANNELS 3 Zrotation Yrotation Xrotation
		JOINT upperback
		{
			OFFSET 0.004488 0.137956 0.026820
			CHANNELS 3 Zrotation Yrotation Xrotation
			JOINT chest
			{
				OFFSET -0.002265 0.056032 0.002855
				CHANNELS 3 Zrotation Yrotation Xrotation
				JOINT lowerneck
				{
					OFFSET -0.013390 0.211636 -0.033468
					CHANNELS 3 Zrotation Yrotation Xrotation
					JOINT upperneck
					{
						OFFSET 0.010113 0.088937 0.050410
						CHANNELS 3 Zrotation Yrotation Xrotation
						End Site
						{
							OFFSET 0.000000 0.000000 0.000000
						}
					}
				}
				JOINT lclavicle
				{
					OFFSET 0.071702 0.114000 -0.018898
					CHANNELS 3 Zrotation Yrotation Xrotation
					JOINT lshoulder
					{
						OFFSET 0.122921 0.045205 -0.019046
						CHANNELS 3 Zrotation Yrotation Xrotation
						JOINT lelbow
						{
							OFFSET 0.255332 -0.015649 -0.022946
							CHANNELS 3 Zrotation Yrotation Xrotation
							JOINT lwrist
							{
								OFFSET 0.265709 0.012698 -0.007375
								CHANNELS 3 Zrotation Yrotation Xrotation
								End Site
								{
									OFFSET 0.000000 0.000000 0.000000
								}
							}
						}
					}
				}
				JOINT rclavicle
				{
					OFFSET -0.082954 0.112472 -0.023707
					CHANNELS 3 Zrotation Yrotation Xrotation
					JOINT rshoulder
					{
						OFFSET -0.113228 0.046853 -0.008472
						CHANNELS 3 Zrotation Yrotation Xrotation
						JOINT relbow
						{
							OFFSET -0.260127 -0.014369 -0.031269
							CHANNELS 3 Zrotation Yrotation Xrotation
							JOINT rwrist
							{
								OFFSET -0.269108 0.006794 -0.006027
								CHANNELS 3 Zrotation Yrotation Xrotation
								End Site
								{
									OFFSET 0.000000 0.000000 0.000000
								}
							}
						}
					}
				}
			}
		}
	}
}
MOTION
Frames: 14
Frame Time: 0.033333
0.213037 0.802983 0.992658 -98.149127 -1.491615 77.958075 11.587103 -6.890183 -42.811111 -3.421108 17.439887 87.310249 3.209428 8.827147 -26.059838 0.000000 -0.000000 0.000000 0.945145 -2.387491 5.992428 2.336432 6.313964 11.432047 2.701827 -3.059307 -11.309486 0.000000 -0.000000 0.000000 -1.710224 10.742692 16.022993 3.592965 -3.445525 4.636149 0.165294 0.179464 6.038352 2.645981 1.431612 10.021449 5.021332 0.427230 16.681235 -22.101870 4.971732 5.594626 -65.160374 -1.151153 3.499469 11.133026 -29.694686 10.513463 -1.336788 -2.345988 -7.377281 20.947589 -2.904656 3.667376 61.518638 5.195472 6.582090 -20.932638 35.723912 -3.108171 9.772049 2.328560 -14.938019 
0.198273 0.804765 0.992229 -98.851713 -1.934481 77.842627 12.677939 -5.781278 -46.423705 -2.991108 18.005408 84.011953 3.146661 8.932107 -25.878257 0.000000 -0.000000 0.000000 0.434573 -2.786440 7.127223 2.222811 7.241497 11.586618 2.332763 -2.687342 -12.305303 0.000000 -0.000000 0.000000 -1.899715 11.522361 16.473363 3.350933 -3.416889 4.711008 0.116535 0.459255 5.975194 2.434521 1.454746 10.158845 4.936057 0.365280 17.029652 -22.502244 5.018945 5.736041 -64.861734 -0.674432 2.692103 11.357590 -28.832846 10.456638 -1.472497 -2.087494 -7.270867 21.064922 -2.209136 3.957043 61.371727 6.548432 6.466406 -20.907919 36.671059 -2.609302 9.734959 2.984180 -14.790091 
0.182342 0.805578 0.991722 -99.585162 -2.418910 77.757473 13.474007 -5.122074 -48.384816 -3.155230 18.737918 78.914100 2.954471 8.389271 -25.322675 0.000000 -0.000000 0.000000 -0.179408 -2.976055 8.005313 2.123065 7.887789 12.377563 2.326361 -2.137658 -13.614833 0.000000 -0.000000 0.000000 -2.152663 12.186802 16.562425 3.072818 -3.346874 5.404309 0.006828 0.829920 5.616662 2.479282 2.021304 10.080530 4.865491 -0.056415 16.975322 -22.764403 5.096984 5.351792 -64.696682 0.047789 2.369010 11.910979 -28.002958 9.650987 -1.738352 -1.928931 -7.288037 21.273825 -1.513077 3.842984 61.168173 7.655925 6.801216 -20.592336 37.320275 -2.214213 10.115077 3.048700 -14.488733 
0.170191 0.806257 0.991194 -99.814433 -2.677970 77.673275 13.594736 -4.801593 -48.948541 -3.526794 18.764790 74.705718 2.757064 8.437355 -24.596831 0.000000 -0.000000 0.000000 -0.502785 -3.029383 8.863418 2.031653 8.367088 12.647802 2.355080 -2.103495 -14.570523 0.000000 -0.000000 0.000000 -2.362477 12.522790 16.553919 2.887451 -3.255216 5.631041 -0.018565 0.906400 5.973147 2.536666 2.777444 9.908936 4.684014 0.026452 17.006241 -22.723273 5.280528 4.902595 -64.566293 0.218906 2.448778 11.927095 -27.436365 9.489921 -1.423603 -1.720983 -7.801909 21.422885 -1.070400 3.612071 61.059202 8.612931 7.552940 -20.114175 37.665378 -1.850740 9.048322 3.181847 -14.445896 
0.153230 0.807125 0.989990 -100.198299 -2.901058 77.554819 13.472038 -4.456247 -48.774291 -4.456955 18.210505 69.671819 2.809732 8.057813 -23.553397 0.000000 -0.000000 0.000000 -0.812180 -3.304000 9.803383 1.875524 8.809520 13.493590 1.608831 -2.069990 -16.034995 0.000000 -0.000000 0.000000 -2.562812 12.890419 16.624417 2.625415 -3.133265 6.148828 -0.077894 1.132293 5.451865 2.344305 2.747275 10.294353 4.670012 -0.276486 17.311697 -22.677629 5.164610 5.143450 -64.564683 0.573696 1.841759 12.335429 -26.967804 8.980744 -1.721737 -1.816554 -7.923773 21.492142 -0.329895 3.955178 61.122025 9.444859 7.465135 -19.243664 38.283774 -0.499251 11.123571 3.393693 -13.994753 
0.134900 0.807811 0.988335 -100.140807 -2.850279 77.656250 13.103723 -4.460762 -48.268019 -5.431006 17.156695 65.819900 2.607214 7.665109 -22.244979 0.000000 -0.000000 0.000000 -0.947564 -3.585328 10.927762 1.783430 9.024098 13.727678 1.532749 -2.056536 -17.259510 0.000000 -0.000000 0.000000 -2.701431 13.112507 15.857855 2.522402 -3.139044 7.156588 -0.154128 1.428887 5.612144 2.523492 3.280300 9.992058 4.340153 -0.417552 17.482277 -22.654806 4.978517 4.543772 -64.339534 0.898604 2.151096 12.507003 -26.919537 8.707376 -1.787385 -1.462181 -8.331192 21.537937 0.311392 3.622482 61.291443 9.944356 8.157691 -18.980271 39.484049 -0.123743 11.639017 3.253700 -14.211454 
0.115355 0.808118 0.986451 -100.399415 -2.861407 77.881326 12.866362 -4.594138 -47.203038 -6.055408 16.688250 63.612680 2.346354 7.211061 -20.654419 0.000000 -0.000000 0.000000 -1.205799 -3.620792 11.996021 1.608855 8.968758 13.919766 1.484436 -1.797512 -18.483518 0.000000 -0.000000 0.000000 -2.973479 13.407073 15.514884 2.383353 -2.900857 7.404516 -0.186325 1.773823 5.245032 2.775678 3.540292 10.310592 4.206329 -0.875542 17.654873 -22.550229 5.111125 4.186859 -64.064719 1.430980 2.252151 12.520172 -27.246906 8.844236 -2.138385 -1.316573 -8.067883 21.698194 0.771710 3.806203 61.384260 10.189204 8.533644 -18.364251 40.499053 0.824030 11.714272 3.362731 -14.629019 
0.090151 0.807693 0.984031 -100.870116 -2.755970 78.728417 12.516498 -4.731755 -45.785702 -6.459443 16.511090 62.298014 1.842132 6.520105 -18.887355 0.000000 -0.000000 0.000000 -1.579232 -3.977527 12.502835 1.562477 9.075087 14.631654 1.549782 -1.375933 -19.161728 0.000000 -0.000000 0.000000 -3.162692 13.928616 14.419415 2.233318 -2.473756 7.880894 -0.416088 1.964590 5.035628 2.925257 3.902897 9.910573 4.100209 -1.094314 17.804300 -22.447987 5.198461 4.183989 -63.543773 1.606592 2.150039 12.577588 -28.327483 8.526436 -2.504474 -1.509243 -7.831205 21.718109 1.179716 3.790264 61.872701 10.456014 9.115229 -18.110999 41.581175 1.587803 12.965848 3.495093 -14.623692 
0.069945 0.806509 0.983042 -100.878233 -2.589757 79.780101 11.806092 -5.070547 -44.466205 -6.616930 16.486666 61.409072 1.428668 6.564451 -17.898856 0.000000 -0.000000 0.000000 -1.830031 -3.981288 12.485370 1.551513 8.555199 15.077673 2.301465 -1.101315 -18.815877 0.000000 -0.000000 0.000000 -3.467713 14.086440 13.505907 2.151657 -2.125637 7.757008 -0.480215 2.227236 5.238652 3.259464 4.164700 9.566390 3.648441 -1.284251 17.524616 -22.311994 5.347211 3.570365 -63.289963 1.456815 2.757930 12.560060 -28.601371 8.434323 -2.037752 -1.633192 -7.925618 21.938130 1.232772 3.518027 61.895104 10.708093 9.893532 -18.177712 42.237058 1.461025 12.227665 3.657093 -14.991600 
0.049000 0.804892 0.983636 -101.046679 -2.229023 80.735504 10.642801 -4.842208 -42.371659 -6.073267 16.134891 59.810263 4.952690 8.796524 -21.387862 0.000000 -0.000000 0.000000 -2.169753 -4.503751 13.054391 1.725447 9.035796 14.738929 2.728094 -1.424735 -17.590515 0.000000 -0.000000 0.000000 -3.291381 14.238087 13.193805 1.766849 -1.579394 7.150593 -0.586846 2.430500 5.252983 2.967440 3.548496 9.020304 3.951892 -1.152328 17.685091 -22.086004 5.301223 3.825091 -62.917812 1.094562 2.418312 12.096325 -29.494673 8.822419 -0.692237 -1.759102 -7.865404 21.828669 1.613843 3.867689 62.134473 10.793457 10.036506 -18.033491 42.459563 1.098910 9.269062 3.688474 -14.116684 
0.029396 0.801747 0.986348 -100.741957 -1.879264 82.221036 9.650345 -5.008553 -43.058458 -6.235016 15.126750 60.965610 6.469087 9.464211 -22.620079 0.000000 -0.000000 0.000000 -2.490148 -4.754350 12.577510 1.880279 9.095632 15.094555 3.657641 -0.861728 -15.709669 0.000000 -0.000000 0.000000 -3.251577 14.330656 12.948551 1.487651 -1.341311 5.940679 -0.730008 2.595346 5.588426 3.019327 2.906360 8.173966 4.058443 -1.343243 17.991432 -21.813589 5.299143 3.454153 -62.659170 0.519084 2.774899 11.755714 -29.809464 9.259057 -0.436656 -1.809312 -8.053493 21.426907 1.669690 3.643341 62.498766 10.680984 10.341643 -17.881303 42.244662 1.243590 10.746619 3.986601 -14.798828 
0.010249 0.798630 0.992525 -100.072551 -1.831036 83.759133 9.449093 -6.338682 -43.459481 -6.018754 15.439054 60.929432 6.253348 9.581687 -22.539636 0.000000 -0.000000 0.000000 -2.780840 -4.327855 12.441220 1.522847 8.472383 14.212136 5.206613 -0.896132 -11.501078 0.000000 -0.000000 0.000000 -3.974149 14.734769 12.753431 1.400076 -1.348304 5.595412 -0.624629 2.661365 5.181345 3.028704 2.201841 7.568790 4.669315 -1.514277 17.408261 -21.717644 4.643566 3.473631 -62.552610 -0.261883 3.385826 12.398055 -30.280470 7.953421 -0.570292 -2.254069 -7.549295 21.304829 1.947349 3.536451 62.452384 10.205352 10.737451 -18.786395 42.026275 -0.031453 11.871654 3.797621 -14.709788 
-0.011150 0.795818 1.002801 -99.392472 -1.753980 84.670579 7.843342 -6.957061 -41.470304 -6.331792 14.334448 58.899345 7.960096 11.065051 -24.396605 0.000000 -0.000000 0.000000 -3.312131 -4.577729 12.889190 1.429257 8.042673 13.490876 7.320019 -0.216900 -5.877304 0.000000 -0.000000 0.000000 -4.619450 15.421966 12.563627 1.311356 -1.170538 5.693210 -0.473523 2.636351 5.030552 3.330220 1.003376 7.333366 5.238102 -2.007742 16.822492 -21.491068 3.593353 3.824893 -62.537279 -1.411747 3.867546 12.969373 -30.822095 7.036347 -0.371461 -2.208336 -7.285159 20.939193 2.269998 3.639284 62.705713 9.571485 10.557660 -19.578686 41.200177 -1.299298 14.142595 3.567092 -15.196951 
-0.032272 0.792586 1.016618 -98.541265 -1.046168 85.752462 7.081901 -7.597509 -39.387883 -6.351397 13.242335 56.407239 8.398520 11.583992 -25.108714 0.000000 -0.000000 0.000000 -3.300362 -4.847821 12.793679 1.520281 6.990993 12.729208 10.220427 0.136456 1.947611 0.000000 -0.000000 0.000000 -4.661479 15.498027 12.435809 1.177312 -1.048499 5.209260 -0.327475 2.611139 5.207839 3.599922 0.114768 7.144176 6.086267 -2.082427 16.472665 -21.271547 3.091821 4.051710 -62.622110 -2.510050 4.435421 13.248832 -31.781044 6.219070 0.318415 -2.468629 -7.283987 20.481253 2.038108 3.408981 63.028613 9.096015 10.717134 -19.746897 40.292226 -2.150586 11.837051 3.532923 -14.875371 
